# xmcd CD database file generated by cdsubmit
#
# Track frame offsets:
#	150
#	9150
#	25575
#	44700
#	60900
#	74250
#	83925
#	97350
#	109950
#	123525
#	152100
#	166875
#
# Disc length: 2412 seconds
#
# Revision: 0
# Processed by: cddbd v1.4PL0 Copyright (c) Steve Scherf et al.
# Submitted via: cdsubmit 1.0 by Cameron Simpson <cs@zip.com.au>
#
DISCID=9a096a0c
DTITLE=Ray Charles - The King and Queen of Soul, Disc 1: Ray Charles
DYEAR=1900
DGENRE=
TTITLE0=Hit The Road Jack
TTITLE1=Georgia On My Mind
TTITLE2=I Can't Stop Loving You
TTITLE3=Your Cheating Heart
TTITLE4=Take These Chains From My Heart
TTITLE5=Busted
TTITLE6=Crying Time
TTITLE7=Yesterday
TTITLE8=Eleanor Rigby
TTITLE9=Makin' Whoopee
TTITLE10=You Don't Know Me
TTITLE11=No One
EXTD=
EXTT0=
EXTT1=
EXTT2=
EXTT3=
EXTT4=
EXTT5=
EXTT6=
EXTT7=
EXTT8=
EXTT9=
EXTT10=
EXTT11=
PLAYORDER=
